<?xml version="1.0" encoding="UTF-8" standalone="no"?>
<!-- Created with Inkscape (http://www.inkscape.org/) -->

<svg
   xmlns:dc="http://purl.org/dc/elements/1.1/"
   xmlns:cc="http://creativecommons.org/ns#"
   xmlns:rdf="http://www.w3.org/1999/02/22-rdf-syntax-ns#"
   xmlns:svg="http://www.w3.org/2000/svg"
   xmlns="http://www.w3.org/2000/svg"
   xmlns:sodipodi="http://sodipodi.sourceforge.net/DTD/sodipodi-0.dtd"
   xmlns:inkscape="http://www.inkscape.org/namespaces/inkscape"
   version="1.1"
   id="svg869"
   width="85"
   height="15"
   viewBox="0 0 85 15"
   sodipodi:docname="text-black.svg"
   inkscape:version="0.92.2 2405546, 2018-03-11">
  <metadata
     id="metadata875">
    <rdf:RDF>
      <cc:Work
         rdf:about="">
        <dc:format>image/svg+xml</dc:format>
        <dc:type
           rdf:resource="http://purl.org/dc/dcmitype/StillImage" />
        <dc:title></dc:title>
      </cc:Work>
    </rdf:RDF>
  </metadata>
  <defs
     id="defs873" />
  <sodipodi:namedview
     pagecolor="#ffffff"
     bordercolor="#666666"
     borderopacity="1"
     objecttolerance="10"
     gridtolerance="10"
     guidetolerance="10"
     inkscape:pageopacity="0"
     inkscape:pageshadow="2"
     inkscape:window-width="1920"
     inkscape:window-height="1080"
     id="namedview871"
     showgrid="false"
     showguides="true"
     inkscape:guide-bbox="true"
     fit-margin-top="0"
     fit-margin-left="0"
     fit-margin-right="0"
     fit-margin-bottom="0"
     inkscape:zoom="4.013778"
     inkscape:cx="-14.136785"
     inkscape:cy="7.6089962"
     inkscape:window-x="0"
     inkscape:window-y="0"
     inkscape:window-maximized="1"
     inkscape:current-layer="svg869"
     inkscape:lockguides="true"
     showborder="true">
    <sodipodi:guide
       position="-282.96742,68.354435"
       orientation="0,1"
       id="guide2217"
       inkscape:locked="true" />
    <sodipodi:guide
       position="-259.67761,-4.5201047"
       orientation="0,1"
       id="guide2219"
       inkscape:locked="true" />
  </sodipodi:namedview>
  <g
     id="text2223"
     style="font-style:normal;font-weight:normal;font-size:94.67429352px;line-height:1.25;font-family:sans-serif;letter-spacing:0px;word-spacing:0px;fill:#24292e;fill-opacity:1;stroke:none;stroke-width:2.36685729"
     aria-label="UTOPIAN"
     transform="matrix(0.17394643,0,0,0.17605351,-63.361788,-2.570101)">
    <path
       id="path2367"
       style="font-style:normal;font-variant:normal;font-weight:900;font-stretch:normal;font-family:Lato;-inkscape-font-specification:'Lato Heavy';letter-spacing:11.39999771px;fill:#24292e;fill-opacity:1;stroke-width:2.36685729"
       d="m 393.89341,79.045186 q 3.21893,0 5.7278,-1.041417 2.5562,-1.088755 4.30768,-3.076915 1.75147,-1.98816 2.65088,-4.828389 0.94674,-2.887566 0.94674,-6.532526 V 22.713981 h 15.99995 v 40.851958 q 0,6.343178 -2.08283,11.644938 -2.0355,5.30176 -5.86981,9.136069 -3.83431,3.834309 -9.32541,5.964481 -5.49111,2.130171 -12.355,2.130171 -6.91122,0 -12.40233,-2.130171 -5.49111,-2.130172 -9.32542,-5.964481 -3.83431,-3.834309 -5.86981,-9.136069 -2.03549,-5.30176 -2.03549,-11.644938 V 22.713981 h 15.99995 v 40.804621 q 0,3.64496 0.89941,6.532526 0.94674,2.840229 2.69822,4.875726 1.75147,1.98816 4.26034,3.076915 2.5562,1.041417 5.77513,1.041417 z"
       inkscape:connector-curvature="0" />
    <path
       id="path2369"
       style="font-style:normal;font-variant:normal;font-weight:900;font-stretch:normal;font-family:Lato;-inkscape-font-specification:'Lato Heavy';letter-spacing:11.39999771px;fill:#24292e;fill-opacity:1;stroke-width:2.36685729"
       d="M 495.47658,22.713981 V 35.400337 H 476.06835 V 91.684204 H 460.0684 V 35.400337 H 440.66017 V 22.713981 Z"
       inkscape:connector-curvature="0" />
    <path
       id="path2371"
       style="font-style:normal;font-variant:normal;font-weight:900;font-stretch:normal;font-family:Lato;-inkscape-font-specification:'Lato Heavy';letter-spacing:11.39999771px;fill:#24292e;fill-opacity:1;stroke-width:2.36685729"
       d="m 578.85864,57.175424 q 0,7.479269 -2.60355,13.917121 -2.5562,6.437852 -7.24258,11.218904 -4.68638,4.733715 -11.31358,7.431932 -6.57986,2.698217 -14.62718,2.698217 -8.04731,0 -14.67451,-2.698217 -6.6272,-2.698217 -11.36092,-7.431932 -4.68638,-4.781052 -7.28992,-11.218904 -2.5562,-6.437852 -2.5562,-13.917121 0,-7.479269 2.5562,-13.917121 2.60354,-6.437852 7.28992,-11.171567 4.73372,-4.733714 11.36092,-7.431932 6.6272,-2.698217 14.67451,-2.698217 8.04732,0 14.62718,2.745554 6.6272,2.698218 11.31358,7.431932 4.68638,4.733715 7.24258,11.171567 2.60355,6.437852 2.60355,13.869784 z m -16.37866,0 q 0,-5.112412 -1.32544,-9.183406 -1.32544,-4.118332 -3.83431,-6.958561 -2.46153,-2.840229 -6.05915,-4.355017 -3.59762,-1.514789 -8.18933,-1.514789 -4.63904,0 -8.284,1.514789 -3.59762,1.514788 -6.10649,4.355017 -2.46153,2.840229 -3.78697,6.958561 -1.32544,4.070994 -1.32544,9.183406 0,5.159749 1.32544,9.278081 1.32544,4.070995 3.78697,6.911223 2.50887,2.840229 6.10649,4.355018 3.64496,1.467451 8.284,1.467451 4.59171,0 8.18933,-1.467451 3.59762,-1.514789 6.05915,-4.355018 2.50887,-2.840228 3.83431,-6.911223 1.32544,-4.118332 1.32544,-9.278081 z"
       inkscape:connector-curvature="0" />
    <path
       id="path2373"
       style="font-style:normal;font-variant:normal;font-weight:900;font-stretch:normal;font-family:Lato;-inkscape-font-specification:'Lato Heavy';letter-spacing:11.39999771px;fill:#24292e;fill-opacity:1;stroke-width:2.36685729"
       d="m 614.00117,68.631014 v 23.05319 H 598.00121 V 22.713981 h 24.3313 q 7.28992,0 12.497,1.751475 5.25443,1.704137 8.61536,4.733714 3.40828,3.029578 5.01774,7.14791 1.60946,4.118331 1.60946,8.899383 0,5.159749 -1.6568,9.467429 -1.6568,4.307681 -5.06507,7.384595 -3.40828,3.076915 -8.6627,4.828389 -5.20708,1.704138 -12.35499,1.704138 z m 0,-12.070973 h 8.33134 q 6.2485,0 8.99405,-2.98224 2.74556,-2.98224 2.74556,-8.331338 0,-2.366857 -0.71006,-4.30768 -0.71006,-1.940823 -2.17751,-3.3136 -1.42011,-1.420115 -3.64496,-2.177509 -2.17751,-0.757395 -5.20708,-0.757395 h -8.33134 z"
       inkscape:connector-curvature="0" />
    <path
       id="path2375"
       style="font-style:normal;font-variant:normal;font-weight:900;font-stretch:normal;font-family:Lato;-inkscape-font-specification:'Lato Heavy';letter-spacing:11.39999771px;fill:#24292e;fill-opacity:1;stroke-width:2.36685729"
       d="M 687.38176,91.684204 H 671.28713 V 22.713981 h 16.09463 z"
       inkscape:connector-curvature="0" />
    <path
       id="path2377"
       style="font-style:normal;font-variant:normal;font-weight:900;font-stretch:normal;font-family:Lato;-inkscape-font-specification:'Lato Heavy';letter-spacing:11.39999771px;fill:#24292e;fill-opacity:1;stroke-width:2.36685729"
       d="m 775.78155,91.684204 h -12.40233 q -2.08283,0 -3.45561,-0.946743 -1.32544,-0.99408 -1.84615,-2.508869 l -4.07099,-12.023635 h -26.22478 l -4.071,12.023635 q -0.47337,1.32544 -1.84615,2.414195 -1.37277,1.041417 -3.36093,1.041417 H 706.0066 L 732.70475,22.713981 H 749.0834 Z M 731.47399,65.317413 h 18.84018 l -6.34318,-18.887521 q -0.61538,-1.798812 -1.46745,-4.213006 -0.80473,-2.461532 -1.60946,-5.301761 -0.7574,2.887566 -1.56213,5.349098 -0.80473,2.461532 -1.51479,4.260343 z"
       inkscape:connector-curvature="0" />
    <path
       id="path2379"
       style="font-style:normal;font-variant:normal;font-weight:900;font-stretch:normal;font-family:Lato;-inkscape-font-specification:'Lato Heavy';letter-spacing:11.39999771px;fill:#24292e;fill-opacity:1;stroke-width:2.36685729"
       d="m 801.12972,22.713981 q 1.04142,0 1.75148,0.09467 0.71006,0.09467 1.2781,0.378697 0.56805,0.236685 1.08876,0.710057 0.5207,0.473371 1.18342,1.278103 l 32.75731,41.420003 q -0.18935,-1.98816 -0.28402,-3.834309 -0.0947,-1.893485 -0.0947,-3.550286 v -36.49694 h 14.10647 v 68.970223 h -8.33134 q -1.84614,0 -3.12425,-0.568046 -1.2781,-0.568045 -2.46153,-2.082834 L 806.47882,47.94468 q 0.14201,1.798812 0.23669,3.550287 0.0947,1.704137 0.0947,3.218925 v 36.970312 h -14.1065 V 22.713981 Z"
       inkscape:connector-curvature="0" />
  </g>
</svg>
