<svg xmlns="http://www.w3.org/2000/svg" width="85" height="15">
  <g style="line-height:1.25">
    <path style="-inkscape-font-specification:'Lato Heavy'" d="M5.155 11.346q.56 0 .996-.183.445-.192.75-.542.304-.35.46-.85.165-.508.165-1.15V1.429h2.783V8.62q0 1.117-.362 2.05-.354.933-1.021 1.608-.667.676-1.622 1.05-.955.376-2.15.376-1.202 0-2.157-.375-.955-.375-1.622-1.05-.667-.676-1.02-1.609Q0 9.738 0 8.621V1.429h2.783v7.184q0 .641.157 1.15.164.5.469.858.305.35.741.542.445.183 1.005.183zm17.67-9.917v2.233h-3.376v9.91h-2.784v-9.91H13.29V1.43zm14.504 6.067q0 1.317-.453 2.45-.445 1.133-1.26 1.975-.815.834-1.968 1.309-1.145.475-2.544.475-1.4 0-2.553-.475t-1.976-1.309q-.815-.842-1.268-1.975-.445-1.133-.445-2.45 0-1.317.445-2.45.453-1.134 1.268-1.967.823-.834 1.976-1.309t2.553-.475q1.4 0 2.544.484 1.153.475 1.968 1.308.815.834 1.26 1.967.453 1.133.453 2.442zm-2.85 0q0-.9-.23-1.617-.23-.725-.667-1.225-.428-.5-1.054-.767-.626-.266-1.424-.266-.807 0-1.441.266-.626.267-1.063.767-.428.5-.658 1.225-.23.717-.23 1.617 0 .908.23 1.633.23.717.658 1.217.437.5 1.063.767.634.258 1.44.258.8 0 1.425-.258.626-.267 1.054-.767.436-.5.667-1.217.23-.725.23-1.633zm8.963 2.017v4.058h-2.784V1.43h4.233q1.268 0 2.174.308.914.3 1.498.834.593.533.873 1.258t.28 1.567q0 .908-.288 1.666-.288.759-.881 1.3-.593.542-1.507.85-.906.3-2.15.3zm0-2.126h1.449q1.087 0 1.564-.525.478-.525.478-1.466 0-.417-.124-.759-.123-.341-.378-.583-.248-.25-.635-.383-.378-.134-.905-.134h-1.45zm12.764 6.184h-2.8V1.43h2.8zm15.377 0h-2.158q-.362 0-.6-.166-.231-.175-.322-.442l-.708-2.117h-4.562l-.708 2.117q-.082.233-.321.425-.239.183-.585.183h-2.173L64.09 1.43h2.849zM63.876 8.93h3.277l-1.104-3.325q-.107-.317-.255-.742-.14-.433-.28-.933-.132.508-.272.942-.14.433-.263.75zm12.116-7.501q.181 0 .305.016.123.017.222.067.099.042.19.125.09.083.205.225l5.698 7.292q-.033-.35-.05-.675-.016-.333-.016-.625V1.43H85v12.14h-1.45q-.32 0-.543-.1-.222-.1-.428-.366L76.922 5.87q.025.316.041.625.017.3.017.566v6.51h-2.454V1.428z" aria-label="UTOPIAN" font-weight="900" font-size="94.674" font-family="Lato" letter-spacing="11.4" word-spacing="0" fill="#24292e"/>
  </g>
</svg>
